<?xml version="1.0" encoding="UTF-8" standalone="no"?>
<svg
   xmlns:dc="http://purl.org/dc/elements/1.1/"
   xmlns:cc="http://creativecommons.org/ns#"
   xmlns:rdf="http://www.w3.org/1999/02/22-rdf-syntax-ns#"
   xmlns:svg="http://www.w3.org/2000/svg"
   xmlns="http://www.w3.org/2000/svg"
   xmlns:sodipodi="http://sodipodi.sourceforge.net/DTD/sodipodi-0.dtd"
   xmlns:inkscape="http://www.inkscape.org/namespaces/inkscape"
   version="1.1"
   x="0px"
   y="0px"
   viewBox="0 0 25 25"
   xml:space="preserve"
   id="svg10"
   sodipodi:docname="battery.svg"
   width="25"
   height="25"
   inkscape:version="0.92.2 (5c3e80d, 2017-08-06)"><metadata
     id="metadata16"><rdf:RDF><cc:Work
         rdf:about=""><dc:format>image/svg+xml</dc:format><dc:type
           rdf:resource="http://purl.org/dc/dcmitype/StillImage" /><dc:title></dc:title></cc:Work></rdf:RDF></metadata><defs
     id="defs14" /><sodipodi:namedview
     pagecolor="#ffffff"
     bordercolor="#666666"
     borderopacity="1"
     objecttolerance="10"
     gridtolerance="10"
     guidetolerance="10"
     inkscape:pageopacity="0"
     inkscape:pageshadow="2"
     inkscape:window-width="1920"
     inkscape:window-height="1027"
     id="namedview12"
     showgrid="false"
     inkscape:pagecheckerboard="true"
     inkscape:zoom="18.88"
     inkscape:cx="34.292133"
     inkscape:cy="21.944871"
     inkscape:window-x="1912"
     inkscape:window-y="22"
     inkscape:window-maximized="1"
     inkscape:current-layer="svg10" /><style
     type="text/css"
     id="style2">
	.st0{stroke:#000000;stroke-width:2;stroke-miterlimit:10;}
</style><path
     d="M 18.299788,2.9851695 H 15.950212 V 1.2229873 c 0,-0.35243645 -0.234957,-0.58739408 -0.587394,-0.58739408 H 9.4888771 c -0.3524365,0 -0.5873941,0.23495763 -0.5873941,0.58739408 V 2.9851695 H 6.5519067 c -0.7048728,0 -1.1747881,0.587394 -1.1747881,1.1747881 V 22.956568 c 0,0.587394 0.4699153,1.174788 1.1747881,1.174788 H 18.299788 c 0.587395,0 1.174789,-0.587394 1.174789,-1.174788 V 4.1599576 c 0,-0.5873941 -0.587394,-1.1747881 -1.174789,-1.1747881 z M 17.125,21.781779 H 7.7266949 V 19.432203 H 17.125 Z m 0,-4.699152 H 7.7266949 V 14.733051 H 17.125 Z m 0,-4.699153 H 7.7266949 V 10.033898 H 17.125 Z"
     id="path4"
     inkscape:connector-curvature="0"
     style="stroke-width:1.17478812;fill:#ffffff;fill-opacity:1" /><text
     xml:space="preserve"
     style="font-style:normal;font-weight:normal;font-size:40px;line-height:1.25;font-family:sans-serif;letter-spacing:0px;word-spacing:0px;fill:#000000;fill-opacity:1;stroke:none"
     x="9.2161016"
     y="6.7266951"
     id="text818"><tspan
       sodipodi:role="line"
       id="tspan816"
       x="9.2161016"
       y="43.219906" /></text>
</svg>