<?xml version="1.0" encoding="UTF-8" standalone="no"?>
<svg
   xmlns:dc="http://purl.org/dc/elements/1.1/"
   xmlns:cc="http://creativecommons.org/ns#"
   xmlns:rdf="http://www.w3.org/1999/02/22-rdf-syntax-ns#"
   xmlns:svg="http://www.w3.org/2000/svg"
   xmlns="http://www.w3.org/2000/svg"
   xmlns:sodipodi="http://sodipodi.sourceforge.net/DTD/sodipodi-0.dtd"
   xmlns:inkscape="http://www.inkscape.org/namespaces/inkscape"
   viewBox="0 0 17 17"
   version="1.1"
   x="0px"
   y="0px"
   id="svg32"
   sodipodi:docname="brightness.svg"
   width="17"
   height="17"
   inkscape:version="0.92.2 (5c3e80d, 2017-08-06)">
  <metadata
     id="metadata38">
    <rdf:RDF>
      <cc:Work
         rdf:about="">
        <dc:format>image/svg+xml</dc:format>
        <dc:type
           rdf:resource="http://purl.org/dc/dcmitype/StillImage" />
        <dc:title>021-brightness</dc:title>
      </cc:Work>
    </rdf:RDF>
  </metadata>
  <defs
     id="defs36" />
  <sodipodi:namedview
     pagecolor="#ffffff"
     bordercolor="#666666"
     borderopacity="1"
     objecttolerance="10"
     gridtolerance="10"
     guidetolerance="10"
     inkscape:pageopacity="0"
     inkscape:pageshadow="2"
     inkscape:window-width="1920"
     inkscape:window-height="1057"
     id="namedview34"
     showgrid="false"
     inkscape:pagecheckerboard="true"
     inkscape:zoom="11.8"
     inkscape:cx="33.084746"
     inkscape:cy="10"
     inkscape:window-x="-8"
     inkscape:window-y="-8"
     inkscape:window-maximized="1"
     inkscape:current-layer="svg32" />
  <title
     id="title2">021-brightness</title>
  <desc
     id="desc4">Created with Sketch.</desc>
  <g
     id="g26"
     style="fill:#ffffff;fill-opacity:1;fill-rule:evenodd;stroke:none;stroke-width:1"
     transform="translate(0.0847458,0.7288136)">
    <g
       id="g24"
       style="fill:#ffffff;fill-opacity:1">
      <path
         d="m 8.2231,3.017 c 0.553,0 1,-0.448 1,-1 v -1 c 0,-0.552 -0.447,-1 -1,-1 -0.553,0 -1,0.448 -1,1 v 1 c 0,0.552 0.447,1 1,1"
         id="path6"
         inkscape:connector-curvature="0"
         style="fill:#ffffff;fill-opacity:1" />
      <path
         d="m 8.2231,13.017 c -0.553,0 -1,0.448 -1,1 v 1 c 0,0.552 0.447,1 1,1 0.553,0 1,-0.448 1,-1 v -1 c 0,-0.552 -0.447,-1 -1,-1"
         id="path8"
         inkscape:connector-curvature="0"
         style="fill:#ffffff;fill-opacity:1" />
      <path
         d="m 15.2231,7.017 h -1 c -0.553,0 -1,0.448 -1,1 0,0.552 0.447,1 1,1 h 1 c 0.553,0 1,-0.448 1,-1 0,-0.552 -0.447,-1 -1,-1"
         id="path10"
         inkscape:connector-curvature="0"
         style="fill:#ffffff;fill-opacity:1" />
      <path
         d="m 3.2231,8.017 c 0,-0.552 -0.447,-1 -1,-1 h -1 c -0.553,0 -1,0.448 -1,1 0,0.552 0.447,1 1,1 h 1 c 0.553,0 1,-0.448 1,-1"
         id="path12"
         inkscape:connector-curvature="0"
         style="fill:#ffffff;fill-opacity:1" />
      <path
         d="m 3.9799,2.3598 c -0.391,-0.39 -1.024,-0.391 -1.415,10e-4 -0.39,0.391 -0.39,1.024 10e-4,1.414 l 0.708,0.707 c 0.195,0.195 0.451,0.293 0.707,0.293 0.256,0 0.513,-0.098 0.708,-0.294 0.39,-0.391 0.39,-1.024 -0.001,-1.414 z"
         id="path14"
         inkscape:connector-curvature="0"
         style="fill:#ffffff;fill-opacity:1" />
      <path
         d="m 13.1723,11.5522 c -0.391,-0.39 -1.024,-0.391 -1.415,0.001 -0.39,0.391 -0.39,1.024 10e-4,1.414 l 0.708,0.707 c 0.195,0.195 0.451,0.293 0.707,0.293 0.256,0 0.513,-0.098 0.708,-0.294 0.39,-0.391 0.39,-1.024 -10e-4,-1.414 z"
         id="path16"
         inkscape:connector-curvature="0"
         style="fill:#ffffff;fill-opacity:1" />
      <path
         d="m 12.4653,4.7743 c 0.256,0 0.512,-0.098 0.707,-0.292 l 0.708,-0.708 c 0.391,-0.39 0.391,-1.023 10e-4,-1.414 -0.391,-0.391 -1.024,-0.39 -1.415,-10e-4 l -0.708,0.707 c -0.391,0.391 -0.391,1.024 -10e-4,1.415 0.195,0.195 0.452,0.293 0.708,0.293"
         id="path18"
         inkscape:connector-curvature="0"
         style="fill:#ffffff;fill-opacity:1" />
      <path
         d="m 3.2739,11.5522 -0.708,0.707 c -0.391,0.39 -0.391,1.023 -10e-4,1.414 0.195,0.196 0.452,0.294 0.708,0.294 0.256,0 0.512,-0.098 0.707,-0.293 l 0.708,-0.707 c 0.391,-0.39 0.391,-1.023 0.001,-1.414 -0.391,-0.392 -1.024,-0.391 -1.415,-0.001"
         id="path20"
         inkscape:connector-curvature="0"
         style="fill:#ffffff;fill-opacity:1" />
      <path
         d="m 8.2231,4.017 v 8 c 2.209,0 4,-1.791 4,-4 0,-2.209 -1.791,-4 -4,-4"
         id="path22"
         inkscape:connector-curvature="0"
         style="fill:#ffffff;fill-opacity:1" />
    </g>
  </g>
</svg>
