<?xml version="1.0" encoding="UTF-8" standalone="no"?>
<svg
   xmlns:dc="http://purl.org/dc/elements/1.1/"
   xmlns:cc="http://creativecommons.org/ns#"
   xmlns:rdf="http://www.w3.org/1999/02/22-rdf-syntax-ns#"
   xmlns:svg="http://www.w3.org/2000/svg"
   xmlns="http://www.w3.org/2000/svg"
   xmlns:sodipodi="http://sodipodi.sourceforge.net/DTD/sodipodi-0.dtd"
   xmlns:inkscape="http://www.inkscape.org/namespaces/inkscape"
   version="1.1"
   x="0px"
   y="0px"
   viewBox="0 0 100 100"
   enable-background="new 0 0 100 100"
   xml:space="preserve"
   id="svg216"
   sodipodi:docname="holdingphone.svg"
   width="100"
   height="100"
   inkscape:version="0.92.2 (5c3e80d, 2017-08-06)"><metadata
     id="metadata222"><rdf:RDF><cc:Work
         rdf:about=""><dc:format>image/svg+xml</dc:format><dc:type
           rdf:resource="http://purl.org/dc/dcmitype/StillImage" /><dc:title></dc:title></cc:Work></rdf:RDF></metadata><defs
     id="defs220" /><sodipodi:namedview
     pagecolor="#ffffff"
     bordercolor="#666666"
     borderopacity="1"
     objecttolerance="10"
     gridtolerance="10"
     guidetolerance="10"
     inkscape:pageopacity="0"
     inkscape:pageshadow="2"
     inkscape:window-width="1920"
     inkscape:window-height="1057"
     id="namedview218"
     showgrid="false"
     inkscape:pagecheckerboard="true"
     inkscape:zoom="3.776"
     inkscape:cx="25.982701"
     inkscape:cy="42.124751"
     inkscape:window-x="-8"
     inkscape:window-y="-8"
     inkscape:window-maximized="1"
     inkscape:current-layer="svg216" /><g
     display="none"
     id="g200"
     style="display:none"
     transform="translate(0,-25)"><g
       display="inline"
       id="g198"
       style="display:inline"><g
         id="g196"><line
           stroke-miterlimit="10"
           x1="5"
           y1="93.300003"
           x2="95"
           y2="93.300003"
           id="line2"
           style="fill:#000000;stroke:#e6e6e7;stroke-width:0.25;stroke-miterlimit:10" /><line
           stroke-miterlimit="10"
           x1="5"
           y1="91.199997"
           x2="95"
           y2="91.199997"
           id="line4"
           style="fill:#000000;stroke:#e6e6e7;stroke-width:0.25;stroke-miterlimit:10" /><line
           stroke-miterlimit="10"
           x1="5"
           y1="89.199997"
           x2="95"
           y2="89.199997"
           id="line6"
           style="fill:#000000;stroke:#e6e6e7;stroke-width:0.25;stroke-miterlimit:10" /><line
           stroke-miterlimit="10"
           x1="5"
           y1="87.099998"
           x2="95"
           y2="87.099998"
           id="line8"
           style="fill:#000000;stroke:#e6e6e7;stroke-width:0.25;stroke-miterlimit:10" /><line
           stroke-miterlimit="10"
           x1="5"
           y1="85"
           x2="95"
           y2="85"
           id="line10"
           style="fill:#000000;stroke:#e6e6e7;stroke-width:0.25;stroke-miterlimit:10" /><line
           stroke-miterlimit="10"
           x1="5"
           y1="83"
           x2="95"
           y2="83"
           id="line12"
           style="fill:#000000;stroke:#e6e6e7;stroke-width:0.25;stroke-miterlimit:10" /><line
           stroke-miterlimit="10"
           x1="5"
           y1="80.900002"
           x2="95"
           y2="80.900002"
           id="line14"
           style="fill:#000000;stroke:#e6e6e7;stroke-width:0.25;stroke-miterlimit:10" /><line
           stroke-miterlimit="10"
           x1="5"
           y1="78.900002"
           x2="95"
           y2="78.900002"
           id="line16"
           style="fill:#000000;stroke:#e6e6e7;stroke-width:0.25;stroke-miterlimit:10" /><line
           stroke-miterlimit="10"
           x1="5"
           y1="76.800003"
           x2="95"
           y2="76.800003"
           id="line18"
           style="fill:#000000;stroke:#e6e6e7;stroke-width:0.25;stroke-miterlimit:10" /><line
           stroke-miterlimit="10"
           x1="5"
           y1="74.699997"
           x2="95"
           y2="74.699997"
           id="line20"
           style="fill:#000000;stroke:#e6e6e7;stroke-width:0.25;stroke-miterlimit:10" /><line
           stroke-miterlimit="10"
           x1="5"
           y1="72.699997"
           x2="95"
           y2="72.699997"
           id="line22"
           style="fill:#000000;stroke:#e6e6e7;stroke-width:0.25;stroke-miterlimit:10" /><line
           stroke-miterlimit="10"
           x1="5"
           y1="70.599998"
           x2="95"
           y2="70.599998"
           id="line24"
           style="fill:#000000;stroke:#e6e6e7;stroke-width:0.25;stroke-miterlimit:10" /><line
           stroke-miterlimit="10"
           x1="5"
           y1="68.5"
           x2="95"
           y2="68.5"
           id="line26"
           style="fill:#000000;stroke:#e6e6e7;stroke-width:0.25;stroke-miterlimit:10" /><line
           stroke-miterlimit="10"
           x1="5"
           y1="66.5"
           x2="95"
           y2="66.5"
           id="line28"
           style="fill:#000000;stroke:#e6e6e7;stroke-width:0.25;stroke-miterlimit:10" /><line
           stroke-miterlimit="10"
           x1="5"
           y1="64.400002"
           x2="95"
           y2="64.400002"
           id="line30"
           style="fill:#000000;stroke:#e6e6e7;stroke-width:0.25;stroke-miterlimit:10" /><line
           stroke-miterlimit="10"
           x1="5"
           y1="62.400002"
           x2="95"
           y2="62.400002"
           id="line32"
           style="fill:#000000;stroke:#e6e6e7;stroke-width:0.25;stroke-miterlimit:10" /><line
           stroke-miterlimit="10"
           x1="5"
           y1="60.299999"
           x2="95"
           y2="60.299999"
           id="line34"
           style="fill:#000000;stroke:#e6e6e7;stroke-width:0.25;stroke-miterlimit:10" /><line
           stroke-miterlimit="10"
           x1="5"
           y1="58.200001"
           x2="95"
           y2="58.200001"
           id="line36"
           style="fill:#000000;stroke:#e6e6e7;stroke-width:0.25;stroke-miterlimit:10" /><line
           stroke-miterlimit="10"
           x1="5"
           y1="56.200001"
           x2="95"
           y2="56.200001"
           id="line38"
           style="fill:#000000;stroke:#e6e6e7;stroke-width:0.25;stroke-miterlimit:10" /><line
           stroke-miterlimit="10"
           x1="5"
           y1="54.099998"
           x2="95"
           y2="54.099998"
           id="line40"
           style="fill:#000000;stroke:#e6e6e7;stroke-width:0.25;stroke-miterlimit:10" /><line
           stroke-miterlimit="10"
           x1="5"
           y1="52.099998"
           x2="95"
           y2="52.099998"
           id="line42"
           style="fill:#000000;stroke:#e6e6e7;stroke-width:0.25;stroke-miterlimit:10" /><line
           stroke-miterlimit="10"
           x1="5"
           y1="47.900002"
           x2="95"
           y2="47.900002"
           id="line44"
           style="fill:#000000;stroke:#e6e6e7;stroke-width:0.25;stroke-miterlimit:10" /><line
           stroke-miterlimit="10"
           x1="5"
           y1="45.900002"
           x2="95"
           y2="45.900002"
           id="line46"
           style="fill:#000000;stroke:#e6e6e7;stroke-width:0.25;stroke-miterlimit:10" /><line
           stroke-miterlimit="10"
           x1="5"
           y1="43.799999"
           x2="95"
           y2="43.799999"
           id="line48"
           style="fill:#000000;stroke:#e6e6e7;stroke-width:0.25;stroke-miterlimit:10" /><line
           stroke-miterlimit="10"
           x1="5"
           y1="41.799999"
           x2="95"
           y2="41.799999"
           id="line50"
           style="fill:#000000;stroke:#e6e6e7;stroke-width:0.25;stroke-miterlimit:10" /><line
           stroke-miterlimit="10"
           x1="5"
           y1="39.700001"
           x2="95"
           y2="39.700001"
           id="line52"
           style="fill:#000000;stroke:#e6e6e7;stroke-width:0.25;stroke-miterlimit:10" /><line
           stroke-miterlimit="10"
           x1="5"
           y1="37.599998"
           x2="95"
           y2="37.599998"
           id="line54"
           style="fill:#000000;stroke:#e6e6e7;stroke-width:0.25;stroke-miterlimit:10" /><line
           stroke-miterlimit="10"
           x1="5"
           y1="35.599998"
           x2="95"
           y2="35.599998"
           id="line56"
           style="fill:#000000;stroke:#e6e6e7;stroke-width:0.25;stroke-miterlimit:10" /><line
           stroke-miterlimit="10"
           x1="5"
           y1="33.5"
           x2="95"
           y2="33.5"
           id="line58"
           style="fill:#000000;stroke:#e6e6e7;stroke-width:0.25;stroke-miterlimit:10" /><line
           stroke-miterlimit="10"
           x1="5"
           y1="31.4"
           x2="95"
           y2="31.4"
           id="line60"
           style="fill:#000000;stroke:#e6e6e7;stroke-width:0.25;stroke-miterlimit:10" /><line
           stroke-miterlimit="10"
           x1="5"
           y1="29.4"
           x2="95"
           y2="29.4"
           id="line62"
           style="fill:#000000;stroke:#e6e6e7;stroke-width:0.25;stroke-miterlimit:10" /><line
           stroke-miterlimit="10"
           x1="5"
           y1="27.299999"
           x2="95"
           y2="27.299999"
           id="line64"
           style="fill:#000000;stroke:#e6e6e7;stroke-width:0.25;stroke-miterlimit:10" /><line
           stroke-miterlimit="10"
           x1="5"
           y1="25.299999"
           x2="95"
           y2="25.299999"
           id="line66"
           style="fill:#000000;stroke:#e6e6e7;stroke-width:0.25;stroke-miterlimit:10" /><line
           stroke-miterlimit="10"
           x1="5"
           y1="23.200001"
           x2="95"
           y2="23.200001"
           id="line68"
           style="fill:#000000;stroke:#e6e6e7;stroke-width:0.25;stroke-miterlimit:10" /><line
           stroke-miterlimit="10"
           x1="5"
           y1="21.1"
           x2="95"
           y2="21.1"
           id="line70"
           style="fill:#000000;stroke:#e6e6e7;stroke-width:0.25;stroke-miterlimit:10" /><line
           stroke-miterlimit="10"
           x1="5"
           y1="19.1"
           x2="95"
           y2="19.1"
           id="line72"
           style="fill:#000000;stroke:#e6e6e7;stroke-width:0.25;stroke-miterlimit:10" /><line
           stroke-miterlimit="10"
           x1="5"
           y1="17"
           x2="95"
           y2="17"
           id="line74"
           style="fill:#000000;stroke:#e6e6e7;stroke-width:0.25;stroke-miterlimit:10" /><line
           stroke-miterlimit="10"
           x1="5"
           y1="15"
           x2="95"
           y2="15"
           id="line76"
           style="fill:#000000;stroke:#e6e6e7;stroke-width:0.25;stroke-miterlimit:10" /><line
           stroke-miterlimit="10"
           x1="5"
           y1="12.9"
           x2="95"
           y2="12.9"
           id="line78"
           style="fill:#000000;stroke:#e6e6e7;stroke-width:0.25;stroke-miterlimit:10" /><line
           stroke-miterlimit="10"
           x1="5"
           y1="10.8"
           x2="95"
           y2="10.8"
           id="line80"
           style="fill:#000000;stroke:#e6e6e7;stroke-width:0.25;stroke-miterlimit:10" /><line
           stroke-miterlimit="10"
           x1="5"
           y1="8.8000002"
           x2="95"
           y2="8.8000002"
           id="line82"
           style="fill:#000000;stroke:#e6e6e7;stroke-width:0.25;stroke-miterlimit:10" /><line
           stroke-miterlimit="10"
           x1="5"
           y1="6.6999998"
           x2="95"
           y2="6.6999998"
           id="line84"
           style="fill:#000000;stroke:#e6e6e7;stroke-width:0.25;stroke-miterlimit:10" /><line
           stroke-miterlimit="10"
           x1="93.300003"
           y1="5"
           x2="93.300003"
           y2="95"
           id="line86"
           style="fill:#000000;stroke:#e6e6e7;stroke-width:0.25;stroke-miterlimit:10" /><line
           stroke-miterlimit="10"
           x1="91.199997"
           y1="5"
           x2="91.199997"
           y2="95"
           id="line88"
           style="fill:#000000;stroke:#e6e6e7;stroke-width:0.25;stroke-miterlimit:10" /><line
           stroke-miterlimit="10"
           x1="89.199997"
           y1="5"
           x2="89.199997"
           y2="95"
           id="line90"
           style="fill:#000000;stroke:#e6e6e7;stroke-width:0.25;stroke-miterlimit:10" /><line
           stroke-miterlimit="10"
           x1="87.099998"
           y1="5"
           x2="87.099998"
           y2="95"
           id="line92"
           style="fill:#000000;stroke:#e6e6e7;stroke-width:0.25;stroke-miterlimit:10" /><line
           stroke-miterlimit="10"
           x1="85.099998"
           y1="5"
           x2="85.099998"
           y2="95"
           id="line94"
           style="fill:#000000;stroke:#e6e6e7;stroke-width:0.25;stroke-miterlimit:10" /><line
           stroke-miterlimit="10"
           x1="83"
           y1="5"
           x2="83"
           y2="95"
           id="line96"
           style="fill:#000000;stroke:#e6e6e7;stroke-width:0.25;stroke-miterlimit:10" /><line
           stroke-miterlimit="10"
           x1="80.900002"
           y1="5"
           x2="80.900002"
           y2="95"
           id="line98"
           style="fill:#000000;stroke:#e6e6e7;stroke-width:0.25;stroke-miterlimit:10" /><line
           stroke-miterlimit="10"
           x1="78.900002"
           y1="5"
           x2="78.900002"
           y2="95"
           id="line100"
           style="fill:#000000;stroke:#e6e6e7;stroke-width:0.25;stroke-miterlimit:10" /><line
           stroke-miterlimit="10"
           x1="76.800003"
           y1="5"
           x2="76.800003"
           y2="95"
           id="line102"
           style="fill:#000000;stroke:#e6e6e7;stroke-width:0.25;stroke-miterlimit:10" /><line
           stroke-miterlimit="10"
           x1="74.800003"
           y1="5"
           x2="74.800003"
           y2="95"
           id="line104"
           style="fill:#000000;stroke:#e6e6e7;stroke-width:0.25;stroke-miterlimit:10" /><line
           stroke-miterlimit="10"
           x1="72.699997"
           y1="5"
           x2="72.699997"
           y2="95"
           id="line106"
           style="fill:#000000;stroke:#e6e6e7;stroke-width:0.25;stroke-miterlimit:10" /><line
           stroke-miterlimit="10"
           x1="70.599998"
           y1="5"
           x2="70.599998"
           y2="95"
           id="line108"
           style="fill:#000000;stroke:#e6e6e7;stroke-width:0.25;stroke-miterlimit:10" /><line
           stroke-miterlimit="10"
           x1="68.599998"
           y1="5"
           x2="68.599998"
           y2="95"
           id="line110"
           style="fill:#000000;stroke:#e6e6e7;stroke-width:0.25;stroke-miterlimit:10" /><line
           stroke-miterlimit="10"
           x1="66.5"
           y1="5"
           x2="66.5"
           y2="95"
           id="line112"
           style="fill:#000000;stroke:#e6e6e7;stroke-width:0.25;stroke-miterlimit:10" /><line
           stroke-miterlimit="10"
           x1="64.400002"
           y1="5"
           x2="64.400002"
           y2="95"
           id="line114"
           style="fill:#000000;stroke:#e6e6e7;stroke-width:0.25;stroke-miterlimit:10" /><line
           stroke-miterlimit="10"
           x1="62.400002"
           y1="5"
           x2="62.400002"
           y2="95"
           id="line116"
           style="fill:#000000;stroke:#e6e6e7;stroke-width:0.25;stroke-miterlimit:10" /><line
           stroke-miterlimit="10"
           x1="60.299999"
           y1="5"
           x2="60.299999"
           y2="95"
           id="line118"
           style="fill:#000000;stroke:#e6e6e7;stroke-width:0.25;stroke-miterlimit:10" /><line
           stroke-miterlimit="10"
           x1="58.299999"
           y1="5"
           x2="58.299999"
           y2="95"
           id="line120"
           style="fill:#000000;stroke:#e6e6e7;stroke-width:0.25;stroke-miterlimit:10" /><line
           stroke-miterlimit="10"
           x1="56.200001"
           y1="5"
           x2="56.200001"
           y2="95"
           id="line122"
           style="fill:#000000;stroke:#e6e6e7;stroke-width:0.25;stroke-miterlimit:10" /><line
           stroke-miterlimit="10"
           x1="54.099998"
           y1="5"
           x2="54.099998"
           y2="95"
           id="line124"
           style="fill:#000000;stroke:#e6e6e7;stroke-width:0.25;stroke-miterlimit:10" /><line
           stroke-miterlimit="10"
           x1="52.099998"
           y1="5"
           x2="52.099998"
           y2="95"
           id="line126"
           style="fill:#000000;stroke:#e6e6e7;stroke-width:0.25;stroke-miterlimit:10" /><line
           stroke-miterlimit="10"
           x1="48"
           y1="5"
           x2="48"
           y2="95"
           id="line128"
           style="fill:#000000;stroke:#e6e6e7;stroke-width:0.25;stroke-miterlimit:10" /><line
           stroke-miterlimit="10"
           x1="45.900002"
           y1="5"
           x2="45.900002"
           y2="95"
           id="line130"
           style="fill:#000000;stroke:#e6e6e7;stroke-width:0.25;stroke-miterlimit:10" /><line
           stroke-miterlimit="10"
           x1="43.799999"
           y1="5"
           x2="43.799999"
           y2="95"
           id="line132"
           style="fill:#000000;stroke:#e6e6e7;stroke-width:0.25;stroke-miterlimit:10" /><line
           stroke-miterlimit="10"
           x1="41.799999"
           y1="5"
           x2="41.799999"
           y2="95"
           id="line134"
           style="fill:#000000;stroke:#e6e6e7;stroke-width:0.25;stroke-miterlimit:10" /><line
           stroke-miterlimit="10"
           x1="39.700001"
           y1="5"
           x2="39.700001"
           y2="95"
           id="line136"
           style="fill:#000000;stroke:#e6e6e7;stroke-width:0.25;stroke-miterlimit:10" /><line
           stroke-miterlimit="10"
           x1="37.700001"
           y1="5"
           x2="37.700001"
           y2="95"
           id="line138"
           style="fill:#000000;stroke:#e6e6e7;stroke-width:0.25;stroke-miterlimit:10" /><line
           stroke-miterlimit="10"
           x1="35.599998"
           y1="5"
           x2="35.599998"
           y2="95"
           id="line140"
           style="fill:#000000;stroke:#e6e6e7;stroke-width:0.25;stroke-miterlimit:10" /><line
           stroke-miterlimit="10"
           x1="33.5"
           y1="5"
           x2="33.5"
           y2="95"
           id="line142"
           style="fill:#000000;stroke:#e6e6e7;stroke-width:0.25;stroke-miterlimit:10" /><line
           stroke-miterlimit="10"
           x1="31.5"
           y1="5"
           x2="31.5"
           y2="95"
           id="line144"
           style="fill:#000000;stroke:#e6e6e7;stroke-width:0.25;stroke-miterlimit:10" /><line
           stroke-miterlimit="10"
           x1="29.4"
           y1="5"
           x2="29.4"
           y2="95"
           id="line146"
           style="fill:#000000;stroke:#e6e6e7;stroke-width:0.25;stroke-miterlimit:10" /><line
           stroke-miterlimit="10"
           x1="27.299999"
           y1="5"
           x2="27.299999"
           y2="95"
           id="line148"
           style="fill:#000000;stroke:#e6e6e7;stroke-width:0.25;stroke-miterlimit:10" /><line
           stroke-miterlimit="10"
           x1="25.299999"
           y1="5"
           x2="25.299999"
           y2="95"
           id="line150"
           style="fill:#000000;stroke:#e6e6e7;stroke-width:0.25;stroke-miterlimit:10" /><line
           stroke-miterlimit="10"
           x1="23.200001"
           y1="5"
           x2="23.200001"
           y2="95"
           id="line152"
           style="fill:#000000;stroke:#e6e6e7;stroke-width:0.25;stroke-miterlimit:10" /><line
           stroke-miterlimit="10"
           x1="21.200001"
           y1="5"
           x2="21.200001"
           y2="95"
           id="line154"
           style="fill:#000000;stroke:#e6e6e7;stroke-width:0.25;stroke-miterlimit:10" /><line
           stroke-miterlimit="10"
           x1="19.1"
           y1="5"
           x2="19.1"
           y2="95"
           id="line156"
           style="fill:#000000;stroke:#e6e6e7;stroke-width:0.25;stroke-miterlimit:10" /><line
           stroke-miterlimit="10"
           x1="17"
           y1="5"
           x2="17"
           y2="95"
           id="line158"
           style="fill:#000000;stroke:#e6e6e7;stroke-width:0.25;stroke-miterlimit:10" /><line
           stroke-miterlimit="10"
           x1="15"
           y1="5"
           x2="15"
           y2="95"
           id="line160"
           style="fill:#000000;stroke:#e6e6e7;stroke-width:0.25;stroke-miterlimit:10" /><line
           stroke-miterlimit="10"
           x1="12.9"
           y1="5"
           x2="12.9"
           y2="95"
           id="line162"
           style="fill:#000000;stroke:#e6e6e7;stroke-width:0.25;stroke-miterlimit:10" /><line
           stroke-miterlimit="10"
           x1="10.9"
           y1="5"
           x2="10.9"
           y2="95"
           id="line164"
           style="fill:#000000;stroke:#e6e6e7;stroke-width:0.25;stroke-miterlimit:10" /><line
           stroke-miterlimit="10"
           x1="8.8000002"
           y1="5"
           x2="8.8000002"
           y2="95"
           id="line166"
           style="fill:#000000;stroke:#e6e6e7;stroke-width:0.25;stroke-miterlimit:10" /><line
           stroke-miterlimit="10"
           x1="6.6999998"
           y1="5"
           x2="6.6999998"
           y2="95"
           id="line168"
           style="fill:#000000;stroke:#e6e6e7;stroke-width:0.25;stroke-miterlimit:10" /><line
           stroke-miterlimit="10"
           x1="5"
           y1="50"
           x2="95"
           y2="50"
           id="line170"
           style="fill:#000000;stroke:#bbbcbf;stroke-width:0.25;stroke-miterlimit:10" /><line
           stroke-miterlimit="10"
           x1="50"
           y1="5"
           x2="50"
           y2="95"
           id="line172"
           style="fill:#000000;stroke:#bbbcbf;stroke-width:0.25;stroke-miterlimit:10" /><line
           stroke-miterlimit="10"
           x1="95"
           y1="5"
           x2="5"
           y2="95"
           id="line174"
           style="fill:#000000;stroke:#bbbcbf;stroke-width:0.25;stroke-miterlimit:10" /><line
           stroke-miterlimit="10"
           x1="5"
           y1="5"
           x2="95"
           y2="95"
           id="line176"
           style="fill:#000000;stroke:#bbbcbf;stroke-width:0.25;stroke-miterlimit:10" /><circle
           stroke-miterlimit="10"
           cx="50"
           cy="50"
           r="20.6"
           id="circle178"
           style="fill:#000000;stroke:#d0d1d3;stroke-width:0.19320001;stroke-miterlimit:10" /><circle
           stroke-miterlimit="10"
           cx="50"
           cy="50"
           r="20.6"
           id="circle180"
           style="fill:#000000;stroke:#bbbcbf;stroke-width:0.25;stroke-miterlimit:10" /><circle
           stroke-miterlimit="10"
           cx="50"
           cy="50"
           r="8.1999998"
           id="circle182"
           style="fill:#000000;stroke:#bbbcbf;stroke-width:0.25;stroke-miterlimit:10" /><circle
           stroke-miterlimit="10"
           cx="50"
           cy="50"
           r="32.900002"
           id="circle184"
           style="fill:#000000;stroke:#bbbcbf;stroke-width:0.25;stroke-miterlimit:10" /><circle
           stroke-miterlimit="10"
           cx="50"
           cy="50"
           r="45"
           id="circle186"
           style="fill:#000000;stroke:#bbbcbf;stroke-width:0.25;stroke-miterlimit:10" /><path
           stroke-miterlimit="10"
           d="M 76.8,95 H 23.2 C 19.8,95 17,92.2 17,88.8 V 11.2 C 17,7.8 19.8,5 23.2,5 h 53.6 c 3.4,0 6.2,2.8 6.2,6.2 v 77.6 c 0,3.4 -2.8,6.2 -6.2,6.2 z"
           id="path188"
           inkscape:connector-curvature="0"
           style="fill:#000000;stroke:#bbbcbf;stroke-width:0.25;stroke-miterlimit:10" /><path
           stroke-miterlimit="10"
           d="M 5,76.8 V 23.2 C 5,19.8 7.8,17 11.2,17 h 77.6 c 3.4,0 6.2,2.8 6.2,6.2 V 76.8 C 95,80.2 92.2,83 88.8,83 H 11.2 C 7.8,83 5,80.2 5,76.8 Z"
           id="path190"
           inkscape:connector-curvature="0"
           style="fill:#000000;stroke:#bbbcbf;stroke-width:0.25;stroke-miterlimit:10" /><path
           stroke-miterlimit="10"
           d="M 82.9,89.2 H 17.1 c -3.4,0 -6.2,-2.8 -6.2,-6.2 V 17.1 c 0,-3.4 2.8,-6.2 6.2,-6.2 h 65.8 c 3.4,0 6.2,2.8 6.2,6.2 v 65.8 c 0,3.5 -2.8,6.3 -6.2,6.3 z"
           id="path192"
           inkscape:connector-curvature="0"
           style="fill:#000000;stroke:#bbbcbf;stroke-width:0.25;stroke-miterlimit:10" /><rect
           x="5"
           y="5"
           stroke-miterlimit="10"
           width="90"
           height="90"
           id="rect194"
           style="fill:#000000;stroke:#bbbcbf;stroke-width:0.25;stroke-miterlimit:10" /></g></g></g><g
     id="g210"
     transform="translate(0.79449153,1.4830509)"
     style="fill:#ffffff;fill-opacity:1"><g
       id="g208"
       style="fill:#ffffff;fill-opacity:1"><path
         d="m 94.8,77.2 -0.3,-0.4 c -1,-1.4 -1.7,-3 -2.3,-4.6 -0.5,-1.7 -0.8,-3.4 -0.8,-5.1 0,-2 -0.6,-3.9 -1.6,-5.6 L 76.5,40.4 c -1,-1.6 -2.6,-2.7 -4.5,-3.1 -1.9,-0.4 -3.8,0 -5.4,1.1 l -0.4,0.2 c -1,-0.6 -2,-0.9 -3.1,-1 V 8 c 0,-2.2 -1.8,-4 -4,-4 H 20.9 c -2.2,0 -4,1.8 -4,4 v 30.9 c -0.7,-0.2 -1.4,-0.3 -2.1,-0.3 h -0.1 c -1.4,0 -2.8,0.6 -3.7,1.6 -1,1 -1.5,2.4 -1.4,3.8 0.2,3.2 -0.3,8.1 -1.5,14.2 -0.8,4 -0.5,8.2 0.6,12.1 l 2.2,7.4 -5.5,6.5 C 4.8,85 4.9,86.3 5.8,87 c 0.4,0.3 0.8,0.5 1.3,0.5 0.6,0 1.1,-0.2 1.5,-0.7 l 6.2,-7.3 c 0.4,-0.5 0.6,-1.2 0.4,-1.8 l -2.5,-8.4 c -1,-3.3 -1.2,-6.8 -0.5,-10.2 1.2,-6.5 1.7,-11.6 1.5,-15.2 0,-0.4 0.2,-0.7 0.3,-0.8 0.1,-0.1 0.4,-0.4 0.8,-0.4 h 0.1 c 0.7,0 1.4,0.2 2.1,0.5 v 31.7 c 0,2.2 1.8,4 4,4 h 28.2 c -2,1.9 -4.3,3.6 -6.7,4.9 -0.6,0.3 -1.2,0.6 -1.9,0.9 -0.4,0.2 -0.8,0.6 -1,1 l -3,6.7 c -0.4,1 0,2.2 1,2.6 0.3,0.1 0.5,0.2 0.8,0.2 0.8,0 1.5,-0.4 1.8,-1.2 l 2.7,-6.1 c 0.5,-0.2 1,-0.5 1.4,-0.7 3.4,-1.9 6.5,-4.3 9.2,-7.3 2.6,2.6 5.7,4.7 9.2,5.8 l 0.6,0.2 5.2,5.7 c 0.4,0.4 0.9,0.6 1.5,0.6 0.5,0 1,-0.2 1.3,-0.5 0.8,-0.7 0.9,-2 0.1,-2.8 L 66,82.9 C 65.8,82.7 65.5,82.5 65.2,82.4 L 64,82 c -3.3,-1.1 -6.3,-3.1 -8.5,-5.8 -0.1,-0.4 -0.4,-0.8 -0.7,-1 -0.1,0 -0.1,-0.1 -0.2,-0.1 -0.3,-0.4 -0.5,-0.8 -0.8,-1.2 L 50,67.7 c -1.2,-1.9 -0.9,-4.2 0.5,-5.9 l 4.1,5.6 c 0.4,0.5 1,0.8 1.6,0.8 0.4,0 0.8,-0.1 1.2,-0.4 0.9,-0.6 1.1,-1.9 0.4,-2.8 L 50.6,55.1 35,29.1 c -0.4,-0.6 -0.2,-1.4 0.4,-1.8 0.3,-0.2 0.7,-0.3 1,-0.2 0.4,0.1 0.7,0.3 0.9,0.6 l 15.8,24.1 c 0.6,0.9 1.8,1.2 2.7,0.6 0.9,-0.6 1.2,-1.8 0.6,-2.7 l -4,-6.1 1.6,-1.1 c 0.8,-0.5 1.9,-0.4 2.4,0.4 l 4.6,7.2 c 0.4,0.6 1,0.9 1.7,0.9 0.4,0 0.7,-0.1 1.1,-0.3 0.9,-0.6 1.2,-1.8 0.6,-2.7 l -3.6,-5.7 v 0 c 1.2,-0.8 2.9,-0.7 3.9,0.3 0.2,0.2 0.3,0.3 0.4,0.5 L 69,49 c 0.4,0.6 1,0.9 1.7,0.9 0.4,0 0.7,-0.1 1.1,-0.3 0.9,-0.6 1.2,-1.8 0.6,-2.7 L 69,41.6 c 0.7,-0.4 1.4,-0.5 2.2,-0.4 0.8,0.2 1.5,0.7 2,1.4 l 13.4,21.1 c 0.7,1 1,2.2 1,3.4 0,2.1 0.3,4.2 1,6.3 0.6,2 1.6,4 2.8,5.7 l 0.3,0.4 c 0.4,0.5 1,0.8 1.6,0.8 0.4,0 0.8,-0.1 1.1,-0.4 0.9,-0.6 1.1,-1.8 0.4,-2.7 z M 59.1,8 v 5.5 H 20.9 V 8 Z M 49.7,74.8 H 20.9 v -5.5 h 25.4 c 0.1,0.2 0.2,0.3 0.3,0.5 z m 2.1,-35.7 -1.6,1.1 -9.7,-14.7 c -0.8,-1.2 -2,-2 -3.5,-2.3 -1.4,-0.3 -2.9,0.1 -4.1,0.9 -2.3,1.6 -2.9,4.7 -1.5,7.1 L 48,58.6 c -1.8,1.8 -2.8,4.2 -2.7,6.7 H 20.9 V 17.4 h 38.2 v 21.2 c -0.2,0.1 -0.3,0.2 -0.5,0.3 l -0.3,0.2 c -1.9,-1.3 -4.5,-1.3 -6.5,0 z"
         id="path202"
         inkscape:connector-curvature="0"
         style="fill:#ffffff;fill-opacity:1" /><circle
         cx="40"
         cy="72.199997"
         r="1.6"
         id="circle204"
         style="fill:#ffffff;fill-opacity:1" /><path
         d="m 35.4,12.6 h 9.5 c 1.1,0 2,-0.9 2,-2 0,-1.1 -0.9,-2 -2,-2 h -9.5 c -1.1,0 -2,0.9 -2,2 0,1.1 0.9,2 2,2 z"
         id="path206"
         inkscape:connector-curvature="0"
         style="fill:#ffffff;fill-opacity:1" /></g></g></svg>