<?xml version="1.0" encoding="UTF-8" standalone="no"?>
<svg
   xmlns:dc="http://purl.org/dc/elements/1.1/"
   xmlns:cc="http://creativecommons.org/ns#"
   xmlns:rdf="http://www.w3.org/1999/02/22-rdf-syntax-ns#"
   xmlns:svg="http://www.w3.org/2000/svg"
   xmlns="http://www.w3.org/2000/svg"
   xmlns:sodipodi="http://sodipodi.sourceforge.net/DTD/sodipodi-0.dtd"
   xmlns:inkscape="http://www.inkscape.org/namespaces/inkscape"
   version="1.1"
   x="0px"
   y="0px"
   viewBox="0 0 25 25"
   enable-background="new 0 0 100 100"
   xml:space="preserve"
   id="svg24"
   sodipodi:docname="hot.svg"
   width="25"
   height="25"
   inkscape:version="0.92.2 (5c3e80d, 2017-08-06)"><metadata
     id="metadata30"><rdf:RDF><cc:Work
         rdf:about=""><dc:format>image/svg+xml</dc:format><dc:type
           rdf:resource="http://purl.org/dc/dcmitype/StillImage" /><dc:title /></cc:Work></rdf:RDF></metadata><defs
     id="defs28" /><sodipodi:namedview
     pagecolor="#ffffff"
     bordercolor="#666666"
     borderopacity="1"
     objecttolerance="10"
     gridtolerance="10"
     guidetolerance="10"
     inkscape:pageopacity="0"
     inkscape:pageshadow="2"
     inkscape:window-width="1920"
     inkscape:window-height="1027"
     id="namedview26"
     showgrid="false"
     inkscape:pagecheckerboard="true"
     inkscape:zoom="21.360282"
     inkscape:cx="9.9255045"
     inkscape:cy="15.982741"
     inkscape:window-x="1912"
     inkscape:window-y="22"
     inkscape:window-maximized="1"
     inkscape:current-layer="svg24" /><g
     id="g18"
     transform="matrix(0.30468324,0,0,0.28348166,-2.6137094,-1.6905996)"
     style="fill:#fc8d59;fill-opacity:0.94117647"><path
       d="M 70.001,60.998 V 15.5 c 0,-4.411 -3.589,-8 -8,-8 -4.411,0 -8,3.589 -8,8 V 60.997 C 48.492,63.935 45,69.688 45,76 c 0,9.374 7.626,17 17,17 9.374,0 17,-7.626 17,-17 0,-6.312 -3.491,-12.064 -8.999,-15.002 z M 62,89 c -7.168,0 -13,-5.832 -13,-13 0,-5.17 3.063,-9.848 7.802,-11.918 l 1.199,-0.524 V 15.5 c 0,-2.206 1.794,-4 4,-4 2.206,0 4,1.794 4,4 V 63.559 L 67.2,64.083 C 71.938,66.153 75,70.831 75,76 75,83.168 69.168,89 62,89 Z"
       id="path2"
       inkscape:connector-curvature="0"
       style="fill:#fc8d59;fill-opacity:0.94117647" /><path
       d="M 64,67.748 V 27.477 c 0,-1.104 -0.896,-2 -2,-2 -1.104,0 -2,0.896 -2,2 v 40.271 c -3.724,0.902 -6.5,4.256 -6.5,8.252 0,4.687 3.813,8.5 8.5,8.5 4.687,0 8.5,-3.813 8.5,-8.5 0,-3.996 -2.776,-7.35 -6.5,-8.252 z M 62,80.5 c -2.481,0 -4.5,-2.019 -4.5,-4.5 0,-2.481 2.019,-4.5 4.5,-4.5 2.481,0 4.5,2.019 4.5,4.5 0,2.481 -2.019,4.5 -4.5,4.5 z"
       id="path4"
       inkscape:connector-curvature="0"
       style="fill:#fc8d59;fill-opacity:0.94117647" /><path
       d="m 47.55,46.271 c 1.084,0 1.975,-0.866 1.999,-1.956 0.023,-1.104 -0.852,-2.02 -1.956,-2.043 -4.58,-0.102 -8.306,-3.911 -8.306,-8.492 0,-4.577 3.723,-8.387 8.299,-8.492 1.104,-0.024 1.979,-0.94 1.953,-2.045 -0.024,-1.089 -0.915,-1.954 -1.998,-1.954 -0.016,0 -0.031,0 -0.047,10e-4 -6.731,0.154 -12.207,5.758 -12.207,12.49 0,6.738 5.48,12.342 12.218,12.491 0.015,0 0.029,0 0.045,0 z"
       id="path6"
       inkscape:connector-curvature="0"
       style="fill:#fc8d59;fill-opacity:0.94117647" /><path
       d="m 47.78,18.264 c 1.104,0 2,-0.896 2,-2 V 9 c 0,-1.104 -0.896,-2 -2,-2 -1.104,0 -2,0.896 -2,2 v 7.264 c 0,1.104 0.896,2 2,2 z"
       id="path8"
       inkscape:connector-curvature="0"
       style="fill:#fc8d59;fill-opacity:0.94117647" /><path
       d="m 47.782,49.298 c -1.104,0 -2,0.896 -2,2 v 7.264 c 0,1.104 0.896,2 2,2 1.104,0 2,-0.896 2,-2 v -7.264 c 0,-1.105 -0.895,-2 -2,-2 z"
       id="path10"
       inkscape:connector-curvature="0"
       style="fill:#fc8d59;fill-opacity:0.94117647" /><path
       d="m 32.265,33.781 c 0,-1.104 -0.896,-2 -2,-2 H 23 c -1.104,0 -2,0.896 -2,2 0,1.104 0.896,2 2,2 h 7.265 c 1.104,0 2,-0.895 2,-2 z"
       id="path12"
       inkscape:connector-curvature="0"
       style="fill:#fc8d59;fill-opacity:0.94117647" /><path
       d="m 33.98,22.809 c 0.391,0.391 0.902,0.586 1.414,0.586 0.512,0 1.023,-0.195 1.414,-0.586 0.781,-0.781 0.781,-2.047 0,-2.828 l -5.137,-5.137 c -0.781,-0.781 -2.047,-0.781 -2.828,0 -0.781,0.781 -0.781,2.047 0,2.828 z"
       id="path14"
       inkscape:connector-curvature="0"
       style="fill:#fc8d59;fill-opacity:0.94117647" /><path
       d="m 33.981,44.754 -5.137,5.136 c -0.781,0.78 -0.781,2.047 0,2.828 0.391,0.391 0.902,0.586 1.414,0.586 0.512,0 1.023,-0.195 1.414,-0.586 l 5.137,-5.136 c 0.781,-0.78 0.781,-2.047 0,-2.828 -0.781,-0.781 -2.046,-0.781 -2.828,0 z"
       id="path16"
       inkscape:connector-curvature="0"
       style="fill:#fc8d59;fill-opacity:0.94117647" /></g></svg>