<?xml version="1.0" encoding="UTF-8" standalone="no"?>
<svg
   xmlns:dc="http://purl.org/dc/elements/1.1/"
   xmlns:cc="http://creativecommons.org/ns#"
   xmlns:rdf="http://www.w3.org/1999/02/22-rdf-syntax-ns#"
   xmlns:svg="http://www.w3.org/2000/svg"
   xmlns="http://www.w3.org/2000/svg"
   xmlns:sodipodi="http://sodipodi.sourceforge.net/DTD/sodipodi-0.dtd"
   xmlns:inkscape="http://www.inkscape.org/namespaces/inkscape"
   version="1.1"
   x="0px"
   y="0px"
   viewBox="0 0 100 100"
   xml:space="preserve"
   id="svg8"
   sodipodi:docname="nonav.svg"
   width="100"
   height="100"
   inkscape:version="0.92.2 (5c3e80d, 2017-08-06)"><metadata
     id="metadata14"><rdf:RDF><cc:Work
         rdf:about=""><dc:format>image/svg+xml</dc:format><dc:type
           rdf:resource="http://purl.org/dc/dcmitype/StillImage" /><dc:title></dc:title></cc:Work></rdf:RDF></metadata><defs
     id="defs12" /><sodipodi:namedview
     pagecolor="#ffffff"
     bordercolor="#666666"
     borderopacity="1"
     objecttolerance="10"
     gridtolerance="10"
     guidetolerance="10"
     inkscape:pageopacity="0"
     inkscape:pageshadow="2"
     inkscape:window-width="1920"
     inkscape:window-height="1027"
     id="namedview10"
     showgrid="false"
     inkscape:pagecheckerboard="true"
     inkscape:zoom="3.776"
     inkscape:cx="-21.518042"
     inkscape:cy="61.38966"
     inkscape:window-x="1912"
     inkscape:window-y="22"
     inkscape:window-maximized="1"
     inkscape:current-layer="svg8" /><g
     id="g6"
     transform="matrix(0.92304064,0,0,0.90197181,-16.521216,-16.669903)"
     style="fill:#ffffff;fill-opacity:1"><polygon
       points="21.5,50 49.2,77.7 50.6,76.3 24.3,50 50.6,23.7 49.2,22.3 "
       id="polygon2"
       style="fill:#ffffff;fill-opacity:1" /><rect
       x="34"
       y="49"
       width="46"
       height="2"
       id="rect4"
       style="fill:#ffffff;fill-opacity:1" /></g><g
     transform="matrix(0.54629906,0,0,0.54883226,44.762143,-477.60343)"
     id="g4"
     style="fill:#ffffff;fill-opacity:1"><path
       style="color:#000000;text-indent:0;text-transform:none;direction:ltr;baseline-shift:baseline;display:inline;overflow:visible;visibility:visible;fill:#ffffff;fill-opacity:1;stroke:none;enable-background:accumulate"
       d="m 46.919487,959.362 c -23.6761,0 -42.9374998,19.29017 -42.9374998,43 0,23.6983 19.2456998,42.9813 42.9061998,43.0001 a 3.0003,3.0003 0 1 0 0,-6 c -20.4137,-0.016 -36.9061998,-16.5371 -36.9061998,-37.0001 0,-20.47297 16.5097998,-37 36.9374998,-37 15.7245,0 29.1309,9.79531 34.4687,23.625 l -6.8124,-3.96875 a 3.0041447,3.0041447 0 1 0 -3.0314,5.1875 l 12.5937,7.37501 a 3.0003,3.0003 0 0 0 4.1563,-1.1875 l 7.3437,-13.68751 a 3.0003,3.0003 0 0 0 -3,-4.4375 3.0003,3.0003 0 0 0 -2.3124,1.625 l -3.5313,6.5625 c -6.3191,-15.87456 -21.8016,-27.09375 -39.8749,-27.09375 z"
       marker="none"
       visibility="visible"
       display="inline"
       overflow="visible"
       id="path2-6"
       inkscape:connector-curvature="0" /></g><path
     d="m 32.732239,13.486483 c -9.374148,0 -17.007185,7.633037 -17.007185,17.007185 0,9.374148 7.633037,17.007186 17.007185,17.007186 9.374147,0 17.007186,-7.633038 17.007186,-17.007186 0,-9.374148 -7.633039,-17.007185 -17.007186,-17.007185 z m 0,3.188847 c 3.244121,0 6.216126,1.128852 8.570558,2.990075 L 21.903976,39.064227 c -1.861223,-2.35337 -2.990075,-5.325375 -2.990075,-8.570559 0,-7.650045 6.168293,-13.818338 13.818338,-13.818338 z m 10.829325,5.248843 c 1.861224,2.353368 2.990077,5.325375 2.990077,8.570558 0,7.650045 -6.168294,13.818339 -13.818339,13.818339 -3.244121,0 -6.216127,-1.128853 -8.570558,-2.990077 z"
     id="path2-0"
     inkscape:connector-curvature="0"
     style="fill:#ff0000;stroke-width:1.06294906" /><path
     d="m 71.069216,56.172965 c -9.273861,0 -16.825237,7.551377 -16.825237,16.825238 0,9.273858 7.551376,16.825238 16.825237,16.825238 9.273861,0 16.825239,-7.55138 16.825239,-16.825238 0,-9.273861 -7.551378,-16.825238 -16.825239,-16.825238 z m 0,3.154732 c 3.209415,0 6.149625,1.116776 8.478869,2.958087 L 60.356797,81.477072 c -1.841311,-2.328193 -2.958086,-5.268403 -2.958086,-8.478869 0,-7.568202 6.102303,-13.670506 13.670505,-13.670506 z m 10.713471,5.19269 c 1.841312,2.328191 2.958088,5.268402 2.958088,8.478867 0,7.568204 -6.102304,13.670505 -13.670507,13.670505 -3.209414,0 -6.149625,-1.116775 -8.478868,-2.958082 z"
     id="path2-0-6"
     inkscape:connector-curvature="0"
     style="fill:#ff0000;stroke-width:1.05157745" /><text
     xml:space="preserve"
     style="font-style:normal;font-weight:normal;font-size:75.16681671px;line-height:1.25;font-family:sans-serif;letter-spacing:0px;word-spacing:0px;fill:#000000;fill-opacity:1;stroke:none;stroke-width:1.87917042"
     x="71.139938"
     y="15.747066"
     id="text818"><tspan
       sodipodi:role="line"
       id="tspan816"
       x="71.139938"
       y="84.324036"
       style="stroke-width:1.87917042" /></text>
</svg>