<?xml version="1.0" encoding="UTF-8" standalone="no"?>
<svg
   xmlns:dc="http://purl.org/dc/elements/1.1/"
   xmlns:cc="http://creativecommons.org/ns#"
   xmlns:rdf="http://www.w3.org/1999/02/22-rdf-syntax-ns#"
   xmlns:svg="http://www.w3.org/2000/svg"
   xmlns="http://www.w3.org/2000/svg"
   xmlns:sodipodi="http://sodipodi.sourceforge.net/DTD/sodipodi-0.dtd"
   xmlns:inkscape="http://www.inkscape.org/namespaces/inkscape"
   version="1.1"
   x="0px"
   y="0px"
   viewBox="0 0 100 100"
   enable-background="new 0 0 100 100"
   xml:space="preserve"
   id="svg22"
   sodipodi:docname="portrait.svg"
   width="100"
   height="100"
   inkscape:version="0.92.2 (5c3e80d, 2017-08-06)"><metadata
     id="metadata28"><rdf:RDF><cc:Work
         rdf:about=""><dc:format>image/svg+xml</dc:format><dc:type
           rdf:resource="http://purl.org/dc/dcmitype/StillImage" /><dc:title></dc:title></cc:Work></rdf:RDF></metadata><defs
     id="defs26" /><sodipodi:namedview
     pagecolor="#ffffff"
     bordercolor="#666666"
     borderopacity="1"
     objecttolerance="10"
     gridtolerance="10"
     guidetolerance="10"
     inkscape:pageopacity="0"
     inkscape:pageshadow="2"
     inkscape:window-width="1920"
     inkscape:window-height="1057"
     id="namedview24"
     showgrid="false"
     inkscape:pagecheckerboard="true"
     inkscape:zoom="5.3400704"
     inkscape:cx="90.420986"
     inkscape:cy="68.511799"
     inkscape:window-x="-8"
     inkscape:window-y="-8"
     inkscape:window-maximized="1"
     inkscape:current-layer="svg22" /><g
     id="g16"
     transform="translate(0,-0.09396134)"
     style="fill:none;stroke:#ffffff;stroke-opacity:1"><path
       stroke-miterlimit="10"
       d="M 55.1,90 V 10 c 0,-2.8 -2.2,-5 -5,-5 H 10.3 c -2.8,0 -5,2.2 -5,5 v 80 c 0,2.8 2.2,5 5,5 h 39.8 c 2.8,0 5,-2.2 5,-5 z m -24.9,2.4 c -1.4,0 -2.6,-1.1 -2.6,-2.6 0,-1.5 1.1,-2.6 2.6,-2.6 1.5,0 2.6,1.1 2.6,2.6 0,1.5 -1.2,2.6 -2.6,2.6 z m 21,-9.7 c 0,1.1 -0.9,2 -2,2 H 11.3 c -1.1,0 -2,-0.9 -2,-2 V 14 c 0,-1.1 0.9,-2 2,-2 h 37.9 c 1.1,0 2,0.9 2,2 z"
       id="path2"
       inkscape:connector-curvature="0"
       style="fill:none;stroke:#ffffff;stroke-width:2;stroke-miterlimit:10;stroke-opacity:1" /><path
       stroke-miterlimit="10"
       d="M 89.7,45.1 H 55.1 v 4 h 30.6 c 1.1,0 2,0.9 2,2 V 89 c 0,1.1 -0.9,2 -2,2 H 55 c -1.4,3.7 -3.5,3.8 -4.9,4 l 39.5,-0.1 c 2.8,0 5,-2.2 5,-5 V 50.1 c 0.1,-2.7 -2.2,-5 -4.9,-5 z"
       id="path4"
       inkscape:connector-curvature="0"
       style="fill:none;stroke:#ffffff;stroke-width:2;stroke-miterlimit:10;stroke-opacity:1" /><g
       id="g14"
       style="fill:none;stroke:#ffffff;stroke-opacity:1"><g
         id="g12"
         style="fill:none;stroke:#ffffff;stroke-opacity:1"><path
           stroke-miterlimit="10"
           d="m 67.9,10.5 c 13.5,3.2 23.6,15.4 23.6,29.9"
           id="path6"
           inkscape:connector-curvature="0"
           style="fill:none;stroke:#ffffff;stroke-width:2;stroke-miterlimit:10;stroke-opacity:1" /><g
           id="g10"
           style="fill:none;stroke:#ffffff;stroke-opacity:1"><polygon
             points="68.6,15.8 60.7,9.6 70,5.9 "
             id="polygon8"
             style="fill:none;stroke:#ffffff;stroke-opacity:1" /></g></g></g></g></svg>