<?xml version="1.0" encoding="UTF-8" standalone="no"?>
<svg
   xmlns:dc="http://purl.org/dc/elements/1.1/"
   xmlns:cc="http://creativecommons.org/ns#"
   xmlns:rdf="http://www.w3.org/1999/02/22-rdf-syntax-ns#"
   xmlns:svg="http://www.w3.org/2000/svg"
   xmlns="http://www.w3.org/2000/svg"
   xmlns:sodipodi="http://sodipodi.sourceforge.net/DTD/sodipodi-0.dtd"
   xmlns:inkscape="http://www.inkscape.org/namespaces/inkscape"
   version="1.1"
   x="0px"
   y="0px"
   viewBox="0 0 100 100"
   xml:space="preserve"
   id="svg8"
   sodipodi:docname="sleep_orientation.svg"
   width="100"
   height="100"
   inkscape:version="0.92.2 (5c3e80d, 2017-08-06)"><metadata
     id="metadata14"><rdf:RDF><cc:Work
         rdf:about=""><dc:format>image/svg+xml</dc:format><dc:type
           rdf:resource="http://purl.org/dc/dcmitype/StillImage" /><dc:title></dc:title></cc:Work></rdf:RDF></metadata><defs
     id="defs12"><marker
       inkscape:stockid="Arrow1Lstart"
       orient="auto"
       refY="0.0"
       refX="0.0"
       id="Arrow1Lstart"
       style="overflow:visible"
       inkscape:isstock="true"><path
         id="path893"
         d="M 0.0,0.0 L 5.0,-5.0 L -12.5,0.0 L 5.0,5.0 L 0.0,0.0 z "
         style="fill-rule:evenodd;stroke:#000000;stroke-width:1.0pt"
         transform="scale(0.8) translate(12.5,0)" /></marker></defs><sodipodi:namedview
     pagecolor="#ffffff"
     bordercolor="#666666"
     borderopacity="1"
     objecttolerance="10"
     gridtolerance="10"
     guidetolerance="10"
     inkscape:pageopacity="0"
     inkscape:pageshadow="2"
     inkscape:window-width="1920"
     inkscape:window-height="1027"
     id="namedview10"
     showgrid="false"
     inkscape:pagecheckerboard="true"
     inkscape:zoom="5.3400704"
     inkscape:cx="3.9931889"
     inkscape:cy="30.122513"
     inkscape:window-x="1912"
     inkscape:window-y="22"
     inkscape:window-maximized="1"
     inkscape:current-layer="g1181"
     showguides="false" /><text
     xml:space="preserve"
     style="font-style:normal;font-weight:normal;font-size:75.16681671px;line-height:1.25;font-family:sans-serif;letter-spacing:0px;word-spacing:0px;fill:#000000;fill-opacity:1;stroke:none;stroke-width:1.87917042"
     x="71.139938"
     y="15.747066"
     id="text818"><tspan
       sodipodi:role="line"
       id="tspan816"
       x="71.139938"
       y="84.324036"
       style="stroke-width:1.87917042" /></text>
<g
     transform="translate(-16.85437,-1.7908542)"
     id="g1181"
     style="fill:#ffffff"><path
       inkscape:connector-curvature="0"
       d="m 102.79741,20.09372 c -4.027712,19.152188 -5.486742,38.455418 -5.110392,57.762462 -0.004,0.655677 1.2159,1.313894 2.00889,1.716235 0.24386,0.146215 2.258302,0.915363 2.200752,0.295986 -0.0698,-19.415687 1.57297,-38.754963 4.43934,-58.091699 0.12705,-0.801127 -3.41239,-2.338407 -3.53859,-1.682984 z"
       id="path2"
       style="stroke-width:0.66761893" /><path
       inkscape:connector-curvature="0"
       d="m 106.35102,82.262274 c 0.80237,-1.458206 1.48238,-2.916716 2.1624,-4.375226 0.74226,-1.679599 1.42355,-3.403601 2.04346,-5.083508 0.49626,-1.414724 0.92985,-2.519861 -0.16498,-3.8501 -0.36494,-0.443413 -0.91364,-0.84304 -1.52415,-1.110076 -0.061,-0.0444 -1.09909,-0.445265 -0.97844,-0.09097 0.17948,0.841188 -0.37647,1.946017 -0.74738,2.741567 -0.43317,1.016641 -0.92772,2.077375 -1.42228,3.138109 -1.23553,2.474841 -2.65482,4.993468 -4.25701,7.378887 -0.0618,0.132597 -0.79939,0.838727 -0.92302,1.103907 -1.035152,-1.02034 -2.070292,-2.040691 -3.044042,-3.105129 -2.069427,-2.217682 -3.955106,-4.47915 -5.90175,-6.785021 -0.729885,-0.886826 -1.826844,-1.774579 -3.109693,-2.176057 -1.038556,-0.312364 -1.529271,-0.04811 -0.982284,0.70551 2.06559,3.014159 4.621468,5.852558 7.42249,8.603076 1.339545,1.330856 2.801447,2.662021 4.263777,3.904691 0.975032,0.79895 2.742622,2.17513 4.394672,2.13505 1.65206,-0.0401 2.2127,-2.11838 2.76823,-3.13471 z"
       id="path4"
       style="stroke-width:0.73581803" /><text
       xml:space="preserve"
       style="font-style:normal;font-variant:normal;font-weight:normal;font-stretch:normal;font-size:40px;line-height:1.25;font-family:'Segoe UI';-inkscape-font-specification:'Segoe UI';letter-spacing:0px;word-spacing:0px;fill:#ffffff;fill-opacity:1;stroke:none;"
       x="51.498108"
       y="86.622513"
       id="text1790"><tspan
         sodipodi:role="line"
         id="tspan1788"
         x="51.498108"
         y="122.65269" /></text>
<text
       xml:space="preserve"
       style="font-style:normal;font-variant:normal;font-weight:normal;font-stretch:normal;font-size:13.33333333px;line-height:1.25;font-family:'Segoe UI';-inkscape-font-specification:'Segoe UI';letter-spacing:0px;word-spacing:0px;fill:#ffffff;fill-opacity:1;stroke:none;"
       x="54.681587"
       y="92.240417"
       id="text1794"><tspan
         sodipodi:role="line"
         id="tspan1792"
         x="54.681587"
         y="128.2706" /></text>
<text
       xml:space="preserve"
       style="font-style:normal;font-variant:normal;font-weight:normal;font-stretch:normal;font-size:18.90367317px;line-height:1.25;font-family:'Segoe UI';-inkscape-font-specification:'Segoe UI';letter-spacing:0px;word-spacing:0px;fill:#000000;fill-opacity:1;stroke:none;stroke-width:0.47259179"
       x="85.341072"
       y="16.576653"
       id="text1798-3"><tspan
         sodipodi:role="line"
         id="tspan1796-0"
         x="85.341072"
         y="16.576653"
         style="font-style:normal;font-variant:normal;font-weight:bold;font-stretch:normal;font-size:6.30122423px;font-family:sans-serif;-inkscape-font-specification:'sans-serif Bold';fill:#91bfdb;fill-opacity:1;stroke-width:0.47259179">EARLIER</tspan></text>
<text
       xml:space="preserve"
       style="font-style:normal;font-variant:normal;font-weight:normal;font-stretch:normal;font-size:18.90367317px;line-height:1.25;font-family:'Segoe UI';-inkscape-font-specification:'Segoe UI';letter-spacing:0px;word-spacing:0px;fill:#fc8d59;fill-opacity:1;stroke:none;stroke-width:0.47259179;"
       x="90.975586"
       y="93.037582"
       id="text1798-3-5"><tspan
         sodipodi:role="line"
         id="tspan1796-0-9"
         x="90.975586"
         y="93.037582"
         style="font-weight:bold;font-size:6.30122423px;fill:#fc8d59;stroke-width:0.47259179;fill-opacity:1;-inkscape-font-specification:'sans-serif Bold';font-family:sans-serif;font-style:normal;font-stretch:normal;font-variant:normal">LATER</tspan></text>
</g></svg>