<?xml version="1.0" encoding="UTF-8" standalone="no"?>
<svg
   xmlns:dc="http://purl.org/dc/elements/1.1/"
   xmlns:cc="http://creativecommons.org/ns#"
   xmlns:rdf="http://www.w3.org/1999/02/22-rdf-syntax-ns#"
   xmlns:svg="http://www.w3.org/2000/svg"
   xmlns="http://www.w3.org/2000/svg"
   xmlns:sodipodi="http://sodipodi.sourceforge.net/DTD/sodipodi-0.dtd"
   xmlns:inkscape="http://www.inkscape.org/namespaces/inkscape"
   version="1.1"
   x="0px"
   y="0px"
   viewBox="0 0 100 100"
   xml:space="preserve"
   id="svg8"
   sodipodi:docname="wifi.svg"
   width="100"
   height="100"
   inkscape:version="0.92.2 (5c3e80d, 2017-08-06)"><metadata
     id="metadata14"><rdf:RDF><cc:Work
         rdf:about=""><dc:format>image/svg+xml</dc:format><dc:type
           rdf:resource="http://purl.org/dc/dcmitype/StillImage" /><dc:title></dc:title></cc:Work></rdf:RDF></metadata><defs
     id="defs12" /><sodipodi:namedview
     pagecolor="#ffffff"
     bordercolor="#666666"
     borderopacity="1"
     objecttolerance="10"
     gridtolerance="10"
     guidetolerance="10"
     inkscape:pageopacity="0"
     inkscape:pageshadow="2"
     inkscape:window-width="1920"
     inkscape:window-height="1027"
     id="namedview10"
     showgrid="false"
     inkscape:pagecheckerboard="true"
     inkscape:zoom="3.776"
     inkscape:cx="-21.518042"
     inkscape:cy="61.38966"
     inkscape:window-x="1912"
     inkscape:window-y="22"
     inkscape:window-maximized="1"
     inkscape:current-layer="svg8" /><path
     d="m 30.491281,3.8347452 c -14.837873,0 -26.8154338,12.1153608 -26.8154338,27.1239408 0,15.008581 11.9775608,27.123942 26.8154338,27.123942 14.837872,0 26.815433,-12.115361 26.815433,-27.123942 0,-15.00858 -11.977561,-27.1239408 -26.815433,-27.1239408 z m 0,42.1325218 c -1.906876,0 -3.456212,-1.567161 -3.456212,-3.495975 0,-1.928814 1.549336,-3.495975 3.456212,-3.495975 1.906876,0 3.456211,1.567161 3.456211,3.495975 0,1.928814 -1.549335,3.495975 -3.456211,3.495975 z m 7.80627,-7.89608 c -0.417129,0.421928 -0.953437,0.602753 -1.430156,0.602753 -0.536309,0 -1.072618,-0.180825 -1.430157,-0.602753 -1.251386,-1.265784 -3.039081,-1.98909 -4.886368,-1.98909 -1.847284,0 -3.63498,0.723306 -4.886367,1.98909 -0.834258,0.843856 -2.085645,0.843856 -2.919903,0 -0.834258,-0.843856 -0.834258,-2.109641 0,-2.953496 2.026055,-2.049365 4.826778,-3.194598 7.80627,-3.194598 2.979492,0 5.780216,1.145233 7.806271,3.194598 0.715079,0.843855 0.715079,2.10964 -0.05958,2.953496 z m 4.826779,-4.942585 c -0.41713,0.421928 -0.953438,0.602754 -1.430157,0.602754 -0.476719,0 -1.072618,-0.180826 -1.430157,-0.602754 -5.541856,-5.605615 -13.884435,-5.605615 -19.426291,0 -0.834258,0.843856 -2.085646,0.843856 -2.919903,0 -0.834258,-0.843856 -0.834258,-2.10964 0,-2.953496 7.091193,-7.172776 18.174905,-7.172776 25.266097,0 0.774668,0.843856 0.774668,2.169915 -0.05959,2.953496 z m 4.886367,-4.88231 c -0.417129,0.421928 -0.953438,0.602754 -1.430156,0.602754 -0.476719,0 -1.072617,-0.180826 -1.430157,-0.602754 -7.925451,-8.016631 -21.273577,-8.016631 -29.199027,0 -0.834258,0.843856 -2.085645,0.843856 -2.919902,0 -0.834259,-0.843856 -0.834259,-2.10964 0,-2.953495 9.474785,-9.583793 25.504457,-9.583793 34.979242,0 0.774669,0.783581 0.774669,2.109639 0,2.953495 z"
     id="path2"
     inkscape:connector-curvature="0"
     style="fill:#ffffff;fill-opacity:1;stroke-width:0.59931654" /><path
     d="m 92.844276,43.514832 h -5.845323 v -4.384006 c 0,-0.8768 -0.58454,-1.461335 -1.46135,-1.461335 H 70.924258 c -0.876785,0 -1.461326,0.584535 -1.461326,1.461335 v 4.384006 h -5.845348 c -1.753594,0 -2.922674,1.461334 -2.922674,2.922669 v 46.762711 c 0,1.461333 1.16908,2.922669 2.922674,2.922669 h 29.226692 c 1.461349,0 2.922674,-1.461336 2.922674,-2.922669 V 46.437501 c 0,-1.461335 -1.461325,-2.922669 -2.922674,-2.922669 z M 89.921627,90.277539 H 66.540258 v -5.845338 h 23.381369 z m 0,-11.690674 H 66.540258 v -5.845339 h 23.381369 z m 0,-11.690682 H 66.540258 v -5.845337 h 23.381369 z"
     id="path4"
     inkscape:connector-curvature="0"
     style="fill:#ffffff;fill-opacity:1;stroke-width:2.92266941" /><text
     xml:space="preserve"
     style="font-style:normal;font-weight:normal;font-size:75.16681671px;line-height:1.25;font-family:sans-serif;letter-spacing:0px;word-spacing:0px;fill:#000000;fill-opacity:1;stroke:none;stroke-width:1.87917042"
     x="71.139938"
     y="15.747066"
     id="text818"><tspan
       sodipodi:role="line"
       id="tspan816"
       x="71.139938"
       y="84.324036"
       style="stroke-width:1.87917042" /></text>
</svg>